<?xml version="1.0" encoding="UTF-8" standalone="no"?><!DOCTYPE svg PUBLIC "-//W3C//DTD SVG 1.1//EN" "http://www.w3.org/Graphics/SVG/1.1/DTD/svg11.dtd"><svg width="100%" height="100%" viewBox="0 0 964 827" version="1.1" xmlns="http://www.w3.org/2000/svg" xmlns:xlink="http://www.w3.org/1999/xlink" xml:space="preserve" xmlns:serif="http://www.serif.com/" style="fill-rule:evenodd;clip-rule:evenodd;stroke-linejoin:round;stroke-miterlimit:2;"><path d="M592.408,239.235c0,0 -69.991,-180.479 -85.01,-219.455c-5.862,-15.212 8.519,-25.463 22.029,-16.339c43.706,29.516 341.321,232.915 426.567,291.182c10.105,6.907 10.72,23.768 -1.009,31.732c-74.221,50.4 -344.982,234.34 -406.347,277.467c-19.072,13.404 -41.02,-4.24 -32.449,-25.918c14.393,-36.404 76.22,-196.762 76.22,-196.762l-375.185,-0c-31.573,-0 -45.691,19.604 -45.691,40.198l-0,235.914c0,23.708 26.843,41.982 45.691,41.982l167.131,0c85.169,0 85.169,126.792 0,126.792l-325.232,0c-33.019,0 -59.121,-27.415 -59.121,-60.434l-0,-445.257c0,-41.733 31.788,-81.1 76.523,-81.1l515.885,0Z" style="fill:#fff;"/></svg>