<?xml version="1.0" encoding="UTF-8" standalone="no"?><!DOCTYPE svg PUBLIC "-//W3C//DTD SVG 1.1//EN" "http://www.w3.org/Graphics/SVG/1.1/DTD/svg11.dtd"><svg width="100%" height="100%" viewBox="0 0 1846 564" version="1.1" xmlns="http://www.w3.org/2000/svg" xmlns:xlink="http://www.w3.org/1999/xlink" xml:space="preserve" xmlns:serif="http://www.serif.com/" style="fill-rule:evenodd;clip-rule:evenodd;stroke-linejoin:round;stroke-miterlimit:2;"><path d="M69.828,503.477l164.019,0c39.391,0 39.391,59.564 0,59.564l-214.056,0c-8.474,0 -20.931,-5.454 -19.707,-17.879l58.514,-480.966c4.853,-40.929 69.01,-37.936 64.705,0c0,0 -50.073,360.251 -59.719,433.465c-0.528,4.006 2.203,5.816 6.243,5.816Zm810.503,0l164.019,0c39.391,0 39.391,59.564 0,59.564l-214.056,0c-8.474,0 -20.931,-5.454 -19.707,-17.879l58.514,-480.966c4.853,-40.929 69.01,-37.936 64.705,0c0,0 -50.073,360.251 -59.719,433.465c-0.528,4.006 2.203,5.816 6.243,5.816Zm-332.474,-290.552l-26.952,224.42c-8.988,85.644 153.282,79.836 164.38,-5.561l9.009,-75.14c5.589,-41.55 65.313,-41.167 61.808,5.058l-8.275,70.309c-14.709,132.138 -192.805,160.118 -257.843,84.316c-71.348,79.777 -242.48,57.321 -226.861,-66.984l27.217,-235.511c5.476,-39.574 54.768,-36.543 50.99,0l-29.335,224.331c-9.622,89.986 137.8,104.847 152.654,-8.103l42.851,-337.917c5.988,-43.795 59.89,-40.441 55.759,0l-9.928,78.42l136.379,0c26.794,0 26.794,42.361 0,42.361l-141.853,0Zm-223.034,-114.48c14.063,0 25.481,11.417 25.481,25.481c0,14.063 -11.417,25.481 -25.481,25.481c-14.063,0 -25.481,-11.417 -25.481,-25.481c0,-14.063 11.417,-25.481 25.481,-25.481Zm438.091,407.803c15.672,0 28.396,12.724 28.396,28.396c0,15.672 -12.724,28.396 -28.396,28.396c-15.672,0 -28.396,-12.724 -28.396,-28.396c0,-15.672 12.724,-28.396 28.396,-28.396Zm599.884,-285.573l-24.967,227.246c-18.184,158.971 -280.264,128.206 -264.526,-6.286l25.154,-236.309c4.177,-41.703 63.73,-41.523 58.033,-0l-30.391,231.226c-9.559,77.71 141.295,120.657 154.854,-6.46l32.924,-302.637c3.795,-41.74 63.8,-47.04 59.126,-0c0,0 13.752,-29.939 76.526,-29.939c47.552,0 98.796,44.649 94.531,87.336l-36.716,347.37c-4.631,43.25 -68.776,38.877 -64.743,0l33.58,-311.546c9.977,-95.255 -104.938,-69.513 -113.385,0Zm-224.544,-126.543c15.672,0 28.396,12.724 28.396,28.396c0,15.672 -12.724,28.396 -28.396,28.396c-15.672,0 -28.396,-12.724 -28.396,-28.396c0,-15.672 12.724,-28.396 28.396,-28.396Zm478.92,288.453l-15.114,148.758c-4.679,46.049 -63.431,40.079 -58.753,-5.969l50.425,-496.29c4.323,-42.551 63.076,-36.582 58.753,5.969l-26.452,260.34l164.321,-129.806c26.511,-21.646 70.944,15.504 33.249,47.329l-162.256,130.353l175.153,153.508c26.834,22.4 -10.397,67.195 -40.532,40.967l-178.794,-155.159Z" style="fill:#fff;"/></svg>